<svg xmlns="http://www.w3.org/2000/svg" width="200" height="200" viewBox="0 0 200 200">
  <g id="Group_7894" data-name="Group 7894" transform="translate(1037 7387)">
    <rect id="Rectangle_5844" data-name="Rectangle 5844" width="200" height="200" transform="translate(-1037 -7387)" fill="none"/>
    <g id="Work_Permit" data-name="Work Permit" transform="translate(-1031.367 -7402.69)">
      <rect id="Rectangle_3294" data-name="Rectangle 3294" width="132.094" height="179.975" rx="1.61" transform="translate(28.32 35.715)" fill="#0057b8"/>
      <rect id="Rectangle_3295" data-name="Rectangle 3295" width="124.386" height="170.608" transform="translate(32.159 39.953)" fill="#f8f8ff"/>
      <path id="Path_3057" data-name="Path 3057" d="M104.288,20.87H42.463a4.023,4.023,0,0,0-4.023,4.023v4.791h69.9V24.893A4.054,4.054,0,0,0,104.288,20.87Z" transform="translate(20.961 10.729)" fill="#00aeef"/>
      <path id="Path_3058" data-name="Path 3058" d="M57.152,37.373A10.842,10.842,0,1,1,67.963,26.562,10.842,10.842,0,0,1,57.152,37.373Zm0-15.049a4.208,4.208,0,1,0,2.986,1.243,4.238,4.238,0,0,0-2.986-1.243Z" transform="translate(37.199 0)" fill="#00aeef"/>
      <g id="Group" transform="translate(57.251 59.148)">
        <text id="W" transform="translate(4.914 23)" fill="#0a1731" font-size="23" font-family="DMSans-Medium, DM Sans" font-weight="500" letter-spacing="-0.05em"><tspan x="0" y="0">W</tspan></text>
        <text id="ork_" data-name="ork " transform="translate(27.948 23)" fill="#0a1731" font-size="23" font-family="DMSans-Medium, DM Sans" font-weight="500"><tspan x="0" y="0">ork </tspan></text>
        <text id="P" transform="translate(0 48.737)" fill="#0a1731" font-size="23" font-family="DMSans-Medium, DM Sans" font-weight="500" letter-spacing="-0.03em"><tspan x="0" y="0">P</tspan></text>
        <text id="ermit" transform="translate(13.913 48.737)" fill="#0a1731" font-size="23" font-family="DMSans-Medium, DM Sans" font-weight="500"><tspan x="0" y="0">ermit</tspan></text>
      </g>
      <rect id="Rectangle_3296" data-name="Rectangle 3296" width="104.207" height="1.505" rx="0.21" transform="translate(42.141 181.415)" fill="#00aeef"/>
      <path id="Path_3059" data-name="Path 3059" d="M80.3,90.571H45.2a2.119,2.119,0,0,1-2.088-2.088V53.408A2.119,2.119,0,0,1,45.2,51.32H80.3a2.088,2.088,0,0,1,2.088,2.088V88.482A2.088,2.088,0,0,1,80.3,90.571ZM47.318,86.394h30.9V55.466h-30.9Z" transform="translate(30.634 73.799)" fill="#00aeef"/>
      <path id="Path_3060" data-name="Path 3060" d="M58.349,78.553a1.935,1.935,0,0,1-1.474-.614L44.989,66.084a2.172,2.172,0,1,1,3.071-3.071L58.5,73.485l21.9-20.3a2.119,2.119,0,0,1,3.071,0,2.088,2.088,0,0,1,0,3.071l-23.4,21.5a2.058,2.058,0,0,1-1.72.8Z" transform="translate(33.208 76.296)" fill="#242638"/>
    </g>
  </g>
</svg>
